<svg width="57" height="38" viewBox="0 0 57 38" fill="none" xmlns="http://www.w3.org/2000/svg">
<path d="M0.660645 35.791V22.6953C0.660645 20.6006 1.22461 18.9966 2.35254 17.8833C3.48047 16.7554 5.0918 16.1914 7.18652 16.1914H49.8135C51.9229 16.1914 53.5342 16.7554 54.6475 17.8833C55.7754 18.9966 56.3394 20.6006 56.3394 22.6953V35.791C56.3394 36.3623 56.1709 36.8164 55.834 37.1533C55.4971 37.4902 55.043 37.6587 54.4717 37.6587H53.1533C52.5967 37.6587 52.1426 37.4902 51.791 37.1533C51.4541 36.8164 51.2856 36.3623 51.2856 35.791V32.5391C51.1685 32.5684 50.9561 32.5977 50.6484 32.627C50.3408 32.6416 50.0552 32.6489 49.7915 32.6489H7.2085C6.94482 32.6489 6.65918 32.6416 6.35156 32.627C6.05859 32.5977 5.84619 32.5684 5.71436 32.5391V35.791C5.71436 36.3623 5.53857 36.8164 5.18701 37.1533C4.8501 37.4902 4.40332 37.6587 3.84668 37.6587H2.52832C1.95703 37.6587 1.50293 37.4902 1.16602 37.1533C0.829102 36.8164 0.660645 36.3623 0.660645 35.791ZM5.93408 13.0493V6.74316C5.93408 4.70703 6.46143 3.17627 7.51611 2.15088C8.5708 1.11084 10.0869 0.59082 12.0645 0.59082H44.9795C46.9424 0.59082 48.4512 1.11084 49.5059 2.15088C50.5752 3.17627 51.1099 4.70703 51.1099 6.74316V13.0493H45.5068V9.88525C45.5068 8.85986 45.2212 8.07617 44.6499 7.53418C44.0933 6.99219 43.2656 6.72119 42.167 6.72119H34.4766C33.3779 6.72119 32.543 6.99219 31.9717 7.53418C31.415 8.07617 31.1367 8.85986 31.1367 9.88525V13.0493H26.1489V9.88525C26.1489 8.85986 25.8706 8.07617 25.314 7.53418C24.772 6.99219 23.981 6.72119 22.9409 6.72119H14.7451C13.7051 6.72119 12.9067 6.99219 12.3501 7.53418C11.7935 8.07617 11.5151 8.85986 11.5151 9.88525V13.0493H5.93408Z" fill="#7FCAC4"/>
</svg>
