<svg width="21" height="20" viewBox="0 0 21 20" fill="none" xmlns="http://www.w3.org/2000/svg">
<path d="M18.0684 0.822266C18.6217 0.822266 19.097 0.939453 19.4941 1.17383C19.8913 1.4082 20.1973 1.72721 20.4121 2.13086C20.627 2.52799 20.7344 2.97396 20.7344 3.46875C20.7344 3.94401 20.6074 4.39974 20.3535 4.83594L12.7754 18.0391C12.528 18.4818 12.1992 18.8138 11.7891 19.0352C11.3789 19.263 10.9492 19.377 10.5 19.377C10.0508 19.377 9.62435 19.263 9.2207 19.0352C8.81055 18.8138 8.47852 18.4818 8.22461 18.0391L0.646484 4.83594C0.522786 4.62109 0.428385 4.39648 0.363281 4.16211C0.298177 3.92773 0.265625 3.69661 0.265625 3.46875C0.265625 2.97396 0.373047 2.52799 0.587891 2.13086C0.802734 1.72721 1.10872 1.4082 1.50586 1.17383C1.90299 0.939453 2.37826 0.822266 2.93164 0.822266L18.0684 0.822266Z" fill="#071B2E"/>
</svg>
