<svg width="52" height="66" viewBox="0 0 52 66" fill="none" xmlns="http://www.w3.org/2000/svg">
<path fill-rule="evenodd" clip-rule="evenodd" d="M44.5934 2.70998C44.9148 1.92376 45.5242 1.2899 46.2971 0.937829C47.0701 0.585761 47.9483 0.542047 48.7524 0.815614C49.5565 1.08918 50.2259 1.65939 50.6238 2.4098C51.0217 3.16021 51.1181 4.03421 50.8934 4.85331L50.7667 5.21998L42.0667 26.62L44.2567 27.2033C47.7567 28.14 50.67 30.9833 51.2234 34.8633C51.6967 38.1966 52.14 43.2633 51.53 48.4833C50.9234 53.6566 49.23 59.41 45.04 63.6366C43.5 65.19 41.29 65.4366 39.7967 65.4633C38.0934 65.49 36.13 65.23 34.1134 64.83C30.06 64.0233 25.1967 62.53 20.6 60.9433L19.22 60.46L16.51 59.48L13.91 58.51L11.4634 57.5666L8.20337 56.2733L5.46337 55.1566L2.74003 54.0066C2.20563 53.7809 1.73941 53.4195 1.38745 52.9584C1.0355 52.4972 0.809989 51.9522 0.733228 51.3771C0.656468 50.8021 0.731112 50.217 0.949779 49.6797C1.16845 49.1423 1.52357 48.6713 1.98003 48.3133C6.57003 44.7133 10.88 40.5733 14.5167 36.75L16.28 34.87L17.1134 33.9566L18.6867 32.2L19.42 31.36L21.4 29.0433L22.5234 27.69C23.6987 26.2458 25.2429 25.1465 26.9922 24.5086C28.7416 23.8707 30.6309 23.718 32.46 24.0666L33.1234 24.22L35.58 24.8766L44.5934 2.70998ZM22 38.4933C18.3518 42.5334 14.4802 46.3661 10.4034 49.9733C12.3234 50.7466 14.2467 51.5066 16.18 52.24C17.9579 50.9739 19.5568 49.4737 20.9334 47.78C21.5168 47.085 22.0599 46.3571 22.56 45.6L23.0334 44.8266C23.472 44.0709 24.1899 43.5177 25.0324 43.286C25.8749 43.0543 26.7748 43.1627 27.5381 43.5879C28.3015 44.0131 28.8674 44.721 29.1141 45.5593C29.3607 46.3976 29.2682 47.2992 28.8567 48.07C28.0767 49.47 27.1 50.7833 26.0834 52.0166C25.2602 53.0188 24.3787 53.9716 23.4434 54.87C24.9834 55.3966 26.5234 55.8966 28.0167 56.3566C29.26 55.5 30.7167 53.74 32.0367 51.74C32.5667 50.94 33.07 50.1166 33.5434 49.2733L34.2234 47.9933C34.6154 47.2008 35.3063 46.5964 36.144 46.3132C36.9816 46.0301 37.8975 46.0912 38.69 46.4833C39.4826 46.8754 40.0869 47.5662 40.3701 48.4039C40.6533 49.2416 40.5921 50.1574 40.2 50.95C39.4367 52.49 38.5467 53.98 37.6 55.4133C36.9454 56.4131 36.24 57.3788 35.4867 58.3066L36.89 58.58C38.0967 58.8033 39.37 58.96 40.52 58.7233C43.0734 56.0066 44.3967 52.0633 44.9067 47.7066C45.0267 46.6966 45.1 45.6866 45.1334 44.6933L22 38.4933ZM31.3967 30.66C30.7211 30.4915 30.0113 30.5206 29.3518 30.744C28.6923 30.9674 28.1108 31.3756 27.6767 31.92L26.8667 32.8966L44.86 37.7166L44.7034 36.41C44.6778 36.2076 44.6511 36.0054 44.6234 35.8033C44.5 34.96 43.9034 34.1666 42.92 33.77L42.5334 33.6433L31.3967 30.66ZM5.55003 19.72L5.76337 20.1866C6.67234 22.0669 8.1039 23.6455 9.8867 24.7333L10.22 24.9266C10.2547 24.9465 10.2834 24.9751 10.3035 25.0097C10.3235 25.0442 10.334 25.0834 10.334 25.1233C10.334 25.1632 10.3235 25.2024 10.3035 25.237C10.2834 25.2715 10.2547 25.3001 10.22 25.32L9.8867 25.5133C8.10417 26.6034 6.67371 28.1843 5.7667 30.0666L5.55337 30.53C5.53488 30.572 5.50455 30.6078 5.46607 30.6329C5.4276 30.658 5.38265 30.6714 5.3367 30.6714C5.29075 30.6714 5.2458 30.658 5.20732 30.6329C5.16885 30.6078 5.13852 30.572 5.12003 30.53L4.9067 30.0633C3.99773 28.183 2.56617 26.6045 0.783366 25.5166L0.450032 25.3233C0.415401 25.3035 0.386625 25.2748 0.366612 25.2403C0.346599 25.2058 0.33606 25.1666 0.33606 25.1266C0.33606 25.0867 0.346599 25.0475 0.366612 25.013C0.386625 24.9785 0.415401 24.9498 0.450032 24.93L0.783366 24.7366C2.56466 23.646 3.99392 22.0652 4.90003 20.1833L5.11337 19.72C5.13185 19.6779 5.16218 19.6421 5.20066 19.617C5.23913 19.5919 5.28408 19.5785 5.33003 19.5785C5.37598 19.5785 5.42093 19.5919 5.45941 19.617C5.49788 19.6421 5.53155 19.6779 5.55003 19.72ZM14.99 3.52331C15.1234 3.22331 15.5434 3.22331 15.6767 3.52331L16.0167 4.26331C17.4645 7.25656 19.7444 9.76906 22.5834 11.5L23.1067 11.81C23.163 11.8411 23.2099 11.8867 23.2425 11.9421C23.2752 11.9975 23.2924 12.0607 23.2924 12.125C23.2924 12.1893 23.2752 12.2524 23.2425 12.3078C23.2099 12.3632 23.163 12.4088 23.1067 12.44L22.58 12.7466C19.7406 14.4784 17.4607 16.9922 16.0134 19.9866L15.68 20.7266C15.6507 20.7937 15.6024 20.8507 15.5411 20.8908C15.4798 20.9308 15.4082 20.9521 15.335 20.9521C15.2618 20.9521 15.1902 20.9308 15.129 20.8908C15.0677 20.8507 15.0194 20.7937 14.99 20.7266L14.65 19.9866C13.2027 16.9922 10.9228 14.4784 8.08336 12.7466L7.5567 12.44C7.50043 12.4088 7.45353 12.3632 7.42087 12.3078C7.38821 12.2524 7.37098 12.1893 7.37098 12.125C7.37098 12.0607 7.38821 11.9975 7.42087 11.9421C7.45353 11.8867 7.50043 11.8411 7.5567 11.81L8.0867 11.5C10.9257 9.76906 13.2055 7.25656 14.6534 4.26331L14.9867 3.52331H14.99Z" fill="white"/>
</svg>
