<svg width="30" height="26" viewBox="0 0 30 26" fill="none" xmlns="http://www.w3.org/2000/svg">
<path d="M0 10.8871C0 9.55092 1.08318 8.46774 2.41935 8.46774H6.04839C7.38456 8.46774 8.46774 9.55092 8.46774 10.8871V22.9839C8.46774 24.32 7.38456 25.4032 6.04839 25.4032H2.41935C1.08318 25.4032 0 24.32 0 22.9839V10.8871Z" fill="white"/>
<path d="M21.5323 13.9113C21.5323 12.5751 22.6154 11.4919 23.9516 11.4919H27.5806C28.9168 11.4919 30 12.5751 30 13.9113V22.9839C30 24.32 28.9168 25.4032 27.5806 25.4032H23.9516C22.6154 25.4032 21.5323 24.32 21.5323 22.9839V13.9113Z" fill="white"/>
<path d="M10.7661 2.41935C10.7661 1.08318 11.8493 0 13.1855 0H16.8145C18.1507 0 19.2339 1.08318 19.2339 2.41935V22.9839C19.2339 24.32 18.1507 25.4032 16.8145 25.4032H13.1855C11.8493 25.4032 10.7661 24.32 10.7661 22.9839V2.41935Z" fill="white"/>
</svg>
