<svg width="24" height="27" viewBox="0 0 24 27" fill="none" xmlns="http://www.w3.org/2000/svg">
<path d="M12.1865 0.291504C12.3818 0.291504 12.5934 0.336263 12.8213 0.425781C13.0492 0.515299 13.2729 0.67806 13.4927 0.914062L22.5869 10.5454C22.8636 10.8384 23.063 11.1191 23.1851 11.3877C23.3153 11.6481 23.3804 11.9248 23.3804 12.2178C23.3804 12.6328 23.2461 12.9787 22.9775 13.2554C22.709 13.5239 22.3672 13.6582 21.9521 13.6582H17.0083V23.8022C17.0083 24.6893 16.7682 25.381 16.2881 25.8774C15.8079 26.3657 15.1325 26.6099 14.2617 26.6099H10.1235C9.25277 26.6099 8.57731 26.3657 8.09717 25.8774C7.61702 25.381 7.37695 24.6893 7.37695 23.8022L7.37695 13.6582H2.48193C2.07503 13.6582 1.7251 13.5239 1.43213 13.2554C1.13916 12.9787 0.992676 12.6247 0.992676 12.1934C0.992676 11.9004 1.06185 11.6359 1.2002 11.3999C1.3304 11.1558 1.55013 10.8709 1.85938 10.5454L10.8682 0.914062C11.0879 0.67806 11.3117 0.515299 11.5396 0.425781C11.7674 0.336263 11.9831 0.291504 12.1865 0.291504Z" fill="white"/>
</svg>
