<svg width="55" height="65" viewBox="0 0 55 65" fill="none" xmlns="http://www.w3.org/2000/svg">
<path fill-rule="evenodd" clip-rule="evenodd" d="M46.8015 2.07199C47.1352 1.28578 47.7678 0.651913 48.5703 0.299844C49.3728 -0.0522246 50.2845 -0.0959384 51.1193 0.177629C51.9541 0.451197 52.649 1.02141 53.0621 1.77182C53.4752 2.52223 53.5753 3.39622 53.342 4.21532L53.2105 4.58199L44.1784 25.982L46.452 26.5653C50.0856 27.502 53.1101 30.3453 53.6846 34.2253C54.176 37.5587 54.6362 42.6253 54.0029 47.8453C53.3731 53.0187 51.6151 58.772 47.2652 62.9987C45.6664 64.552 43.3721 64.7987 41.8218 64.8253C40.0534 64.852 38.0151 64.592 35.9215 64.192C31.7135 63.3853 26.6645 61.892 21.8924 60.3053L20.4597 59.822L17.6463 58.842L14.947 57.872L12.407 56.9287L9.02257 55.6353C7.11151 54.8989 5.21035 54.1388 3.31956 53.3553C2.7696 53.1257 2.29097 52.7625 1.93055 52.3012C1.57014 51.8399 1.3403 51.2963 1.26355 50.7237C1.1868 50.1511 1.26577 49.5691 1.49273 49.0347C1.71969 48.5003 2.08684 48.0319 2.55824 47.6753C7.32689 44.0753 11.7979 39.9353 15.5769 36.112L17.404 34.232C17.7017 33.9253 17.9923 33.6187 18.2726 33.3187L19.906 31.562L20.6673 30.722L22.7229 28.4053L23.8891 27.052C25.1093 25.6078 26.7124 24.5085 28.5286 23.8706C30.3447 23.2327 32.3062 23.08 34.2051 23.4287L34.8937 23.582L37.4441 24.2387L46.8015 2.07199ZM33.1011 30.022C32.3997 29.8535 31.6628 29.8826 30.9782 30.106C30.2935 30.3294 29.6899 30.7376 29.2392 31.282L28.3982 32.2587L47.0783 37.0787L46.9157 35.772C46.888 35.5696 46.8592 35.3674 46.8292 35.1653C46.7046 34.322 46.0852 33.5287 45.0643 33.132L44.6629 33.0053L33.1011 30.022ZM6.26796 19.082L6.48944 19.5487C7.4331 21.429 8.9193 23.0075 10.7701 24.0953L11.1162 24.2887C11.1522 24.3085 11.182 24.3371 11.2028 24.3717C11.2236 24.4062 11.2345 24.4454 11.2345 24.4853C11.2345 24.5252 11.2236 24.5644 11.2028 24.599C11.182 24.6335 11.1522 24.6621 11.1162 24.682L10.7701 24.8753C8.91958 25.9654 7.43453 27.5463 6.4929 29.4287L6.27142 29.892C6.25223 29.9341 6.22074 29.9698 6.1808 29.9949C6.14085 30.0201 6.09418 30.0334 6.04648 30.0334C5.99878 30.0334 5.95211 30.0201 5.91217 29.9949C5.87223 29.9698 5.84074 29.9341 5.82155 29.892L5.60007 29.4253C4.65641 27.545 3.17021 25.9665 1.31936 24.8787L0.973303 24.6853C0.93735 24.6655 0.907476 24.6368 0.886699 24.6023C0.865922 24.5678 0.85498 24.5286 0.85498 24.4887C0.85498 24.4487 0.865922 24.4095 0.886699 24.375C0.907476 24.3405 0.93735 24.3118 0.973303 24.292L1.31936 24.0987C3.16865 23.008 4.65245 21.4272 5.59315 19.5453L5.81463 19.082C5.83382 19.0399 5.86531 19.0042 5.90525 18.979C5.94519 18.9539 5.99186 18.9405 6.03956 18.9405C6.08726 18.9405 6.13393 18.9539 6.17388 18.979C6.21382 19.0042 6.24877 19.0399 6.26796 19.082ZM16.0683 2.88532C16.2067 2.58532 16.6427 2.58532 16.7811 2.88532L17.1341 3.62532C18.6372 6.61857 21.0041 9.13108 23.9514 10.862L24.4947 11.172C24.5531 11.2031 24.6018 11.2488 24.6357 11.3042C24.6697 11.3596 24.6875 11.4227 24.6875 11.487C24.6875 11.5513 24.6697 11.6144 24.6357 11.6698C24.6018 11.7252 24.5531 11.7709 24.4947 11.802L23.948 12.1087C21.0001 13.8405 18.6332 16.3542 17.1307 19.3487L16.7846 20.0887C16.7541 20.1557 16.704 20.2127 16.6404 20.2528C16.5768 20.2928 16.5024 20.3142 16.4264 20.3142C16.3504 20.3142 16.2761 20.2928 16.2125 20.2528C16.1489 20.2127 16.0988 20.1557 16.0683 20.0887L15.7153 19.3487C14.2128 16.3542 11.8458 13.8405 8.89799 12.1087L8.35122 11.802C8.2928 11.7709 8.24411 11.7252 8.2102 11.6698C8.1763 11.6144 8.15841 11.5513 8.15841 11.487C8.15841 11.4227 8.1763 11.3596 8.2102 11.3042C8.24411 11.2488 8.2928 11.2031 8.35122 11.172L8.90145 10.862C11.8488 9.13108 14.2157 6.61857 15.7187 3.62532L16.0648 2.88532H16.0683Z" fill="#7FCAC4"/>
</svg>
