<svg width="24" height="27" viewBox="0 0 24 27" fill="none" xmlns="http://www.w3.org/2000/svg">
<path d="M11.8135 26.7085C11.6182 26.7085 11.4066 26.6637 11.1787 26.5742C10.9508 26.4847 10.7271 26.3219 10.5073 26.0859L1.41309 16.4546C1.13639 16.1616 0.937012 15.8809 0.814941 15.6123C0.684733 15.3519 0.619629 15.0752 0.619629 14.7822C0.619629 14.3672 0.753906 14.0213 1.02246 13.7446C1.29102 13.4761 1.63281 13.3418 2.04785 13.3418H6.9917L6.9917 3.19775C6.9917 2.31071 7.23177 1.61898 7.71191 1.12256C8.19206 0.634277 8.86751 0.390137 9.73828 0.390137L13.8765 0.390137C14.7472 0.390137 15.4227 0.634277 15.9028 1.12256C16.383 1.61898 16.623 2.31071 16.623 3.19775L16.623 13.3418L21.5181 13.3418C21.925 13.3418 22.2749 13.4761 22.5679 13.7446C22.8608 14.0213 23.0073 14.3753 23.0073 14.8066C23.0073 15.0996 22.9382 15.3641 22.7998 15.6001C22.6696 15.8442 22.4499 16.1291 22.1406 16.4546L13.1318 26.0859C12.9121 26.3219 12.6883 26.4847 12.4604 26.5742C12.2326 26.6637 12.0169 26.7085 11.8135 26.7085Z" fill="black"/>
</svg>
