<svg width="18" height="31" viewBox="0 0 18 31" fill="none" xmlns="http://www.w3.org/2000/svg">
<path d="M9.96154 2.58594C9.96154 4.01411 8.80377 5.17188 7.3756 5.17188C5.94743 5.17188 4.78966 4.01411 4.78966 2.58594C4.78966 1.15776 5.94743 0 7.3756 0C8.80377 0 9.96154 1.15776 9.96154 2.58594Z" fill="white"/>
<path d="M7.56249 7.48334C7.22811 6.44241 6.25202 5.68906 5.09998 5.68906C3.6718 5.68906 2.51404 6.84683 2.51404 8.275V21.5129C2.51404 21.5785 2.51872 21.6429 2.52775 21.7059L0.0597323 28.9332C-0.135236 29.5041 0.162413 30.1261 0.729343 30.3325C1.29627 30.5388 1.9241 30.2537 2.14174 29.691L5.01568 22.2607C5.03253 22.2171 5.0468 22.1732 5.05859 22.1291C5.13731 21.9762 5.18779 21.8059 5.20289 21.6248L5.46169 18.5192C5.47812 18.322 5.73553 18.2582 5.84214 18.4249L8.23836 22.1728L8.38736 29.3248C8.39993 29.9281 8.89261 30.4106 9.49607 30.4106C10.0995 30.4106 10.5922 29.9281 10.6048 29.3248L10.7621 21.7733C10.7643 21.6689 10.7538 21.5672 10.732 21.4698C10.7196 21.2728 10.6626 21.0755 10.5573 20.893L7.68591 15.9197V13.6085C7.68591 13.4272 7.90261 13.3336 8.03462 13.4579L12.0755 17.2634C12.0982 17.2848 12.1216 17.3049 12.1457 17.3238L13.6838 26.0469L11.6724 27.7199C11.4255 27.9252 11.4403 28.2481 11.6063 28.4505C11.5765 28.5195 11.5614 28.5959 11.5645 28.6753L11.6134 29.9271C11.6256 30.2402 11.9113 30.4707 12.22 30.4162L17.5724 29.4725C17.881 29.418 18.0707 29.1038 17.9751 28.8053L17.5929 27.6123C17.5686 27.5366 17.5283 27.47 17.4768 27.4154C17.5635 27.1684 17.4669 26.8599 17.1648 26.7514L14.7025 25.8673L13.2157 17.4356C13.3133 17.3877 13.4047 17.3233 13.4857 17.2423C13.8728 16.8552 13.8821 16.2305 13.5068 15.832L12.8008 15.0823L11.7234 8.97199C11.6738 8.69069 11.4055 8.50286 11.1242 8.55246C10.8429 8.60206 10.6551 8.87031 10.7047 9.1516L11.5085 13.7101L9.45636 11.531C9.44714 11.5079 9.43717 11.4849 9.42643 11.462L7.56249 7.48334Z" fill="white"/>
</svg>
